<?xml version="1.0" encoding="UTF-8"?>
<svg width="32px" height="32px" viewBox="0 0 32 32" version="1.1" xmlns="http://www.w3.org/2000/svg" xmlns:xlink="http://www.w3.org/1999/xlink">
    <title>Icons/Inst</title>
    <defs>
        <linearGradient x1="72.8987562%" y1="0%" x2="0%" y2="100%" id="linearGradient-1">
            <stop stop-color="#7F3DCE" offset="0%"></stop>
            <stop stop-color="#BC30A0" offset="23.1404127%"></stop>
            <stop stop-color="#C6328F" offset="35.121421%"></stop>
            <stop stop-color="#F77330" offset="64.2954918%"></stop>
            <stop stop-color="#FED576" offset="92.5273604%"></stop>
            <stop stop-color="#FFDE86" offset="100%"></stop>
        </linearGradient>
    </defs>
    <g id="Page-1" stroke="none" strokeWidth="1" fill="none" fillRule="evenodd">
        <g id="iframe_4-(2)" transform="translate(-915.000000, -449.000000)" fillRule="nonzero">
            <g id="Group" transform="translate(307.000000, 442.000000)">
                <g id="Group-2" transform="translate(440.000000, 7.000000)">
                    <g id="Icons/Inst" transform="translate(168.000000, 0.000000)">
                        <rect id="Base" fill-opacity="0" fill="#D8D8D8" x="0" y="0" width="32" height="32"></rect>
                        <path d="M16.7033675,0.0102832605 C16.8155371,0.0103472101 16.9248367,0.0104281038 17.0313819,0.0105268982 L17.9190462,0.0119251956 C20.5598034,0.0181546356 21.1760816,0.0418521542 22.5896508,0.106349206 C24.292127,0.184 25.4548571,0.454412698 26.472254,0.84984127 C27.5240635,1.25853968 28.4160635,1.80546032 29.3053333,2.69466667 C30.1945397,3.58393651 30.7414603,4.47593651 31.1502222,5.52774603 C31.5455873,6.54514286 31.816,7.70787302 31.8936508,9.41034921 C31.96482,10.9701497 31.9863117,11.5591702 31.9894731,14.9686666 L31.9894731,17.0414772 C31.9863117,20.450925 31.96482,21.0399456 31.8936508,22.599746 C31.816,24.3022222 31.5455873,25.4649524 31.1502222,26.4823492 C30.7414603,27.5341587 30.1945397,28.4261587 29.3053333,29.3154286 C28.4160635,30.2046349 27.5240635,30.7515556 26.472254,31.1603175 C25.4548571,31.5556825 24.292127,31.8260952 22.5896508,31.903746 C21.0298503,31.9749152 20.4408298,31.9964069 17.0313819,31.9995683 L14.9585714,31.9995683 C11.549075,31.9964069 10.9600544,31.9749152 9.40025397,31.903746 C7.69777778,31.8260952 6.53504762,31.5556825 5.51765079,31.1603175 C4.46584127,30.7515556 3.57384127,30.2046349 2.68457143,29.3154286 C1.79536508,28.4261587 1.24844444,27.5341587 0.839746032,26.4823492 C0.44431746,25.4649524 0.173904762,24.3022222 0.0962539683,22.599746 C0.0317569161,21.1861769 0.00805939747,20.5698986 0.00182995752,17.9291415 L0.000431660142,17.0414772 C0.00033286575,16.9349319 0.000251972049,16.8256323 0.000188022398,16.7134628 L0.000188022398,15.2966857 C0.000251972049,15.1845145 0.00033286575,15.0752134 0.000431660142,14.9686666 L0.00182995752,14.0809899 C0.00634093128,12.1686913 0.0200117418,11.3179993 0.0517018176,10.4574167 L0.0612540982,10.2103412 C0.0713120052,9.9611454 0.0829097506,9.70281179 0.0962539683,9.41034921 C0.173904762,7.70787302 0.44431746,6.54514286 0.839746032,5.52774603 C1.24844444,4.47593651 1.79536508,3.58393651 2.68457143,2.69466667 C3.57384127,1.80546032 4.46584127,1.25853968 5.51765079,0.84984127 C6.53504762,0.454412698 7.69777778,0.184 9.40025397,0.106349206 C9.69271655,0.0930049887 9.95105016,0.0814072433 10.200246,0.0713493363 L10.4473215,0.0617970557 C11.3079041,0.0301069799 12.1585961,0.0164361694 14.0708946,0.0119251956 L14.9585714,0.0105268982 C15.0651181,0.0104281038 15.1744193,0.0103472101 15.2865905,0.0102832605 Z M17.030434,2.67210836 L14.9595201,2.67210836 C12.4063973,2.67428574 11.4506432,2.68608074 10.4708577,2.72202255 L10.2244724,2.73151947 C9.97570977,2.74153627 9.71700039,2.75313791 9.42300987,2.76655142 C7.83731227,2.83885748 6.97616007,3.10380752 6.40307003,3.32653599 C5.64392101,3.62157052 5.10214207,3.97399798 4.53305469,4.54314992 C3.96390274,5.11223731 3.61147528,5.65401625 3.31644076,6.41316526 C3.09371228,6.98625531 2.82876224,7.84740751 2.75645619,9.43310511 C2.74304267,9.72709563 2.73144103,9.98580501 2.72142424,10.2345676 L2.71192732,10.480953 C2.6759855,11.4607385 2.6641905,12.4164925 2.66201312,14.9696154 L2.66201312,17.0405292 C2.6649163,20.4446437 2.68491746,21.0090407 2.75645619,22.5769901 C2.82876224,24.1626877 3.09371228,25.0238399 3.31644076,25.59693 C3.61147528,26.356079 3.9639673,26.8978579 4.53305469,27.4669453 C5.10214207,28.0360973 5.64392101,28.3885247 6.40307003,28.6835592 C6.97616007,28.9062877 7.83731227,29.1712378 9.42300987,29.2435438 C10.9417893,29.312847 11.518809,29.3337833 14.6484886,29.3376636 L15.6319911,29.3383393 L15.6319911,29.3383393 L15.9949847,29.338381 C16.119067,29.338381 16.240024,29.3383674 16.357973,29.3383393 L17.3414633,29.3376636 C20.4711088,29.3337833 21.0481726,29.312847 22.5668949,29.2435438 C24.1525925,29.1712378 25.0137447,28.9062877 25.5868347,28.6835592 C26.3459838,28.3885247 26.8877627,28.0360973 27.4568501,27.4669453 C28.026002,26.8978579 28.3784295,26.356079 28.673464,25.59693 C28.8961925,25.0238399 29.1611425,24.1626877 29.2334486,22.5769901 C29.3027517,21.0580391 29.3236881,20.4808985 29.3275683,17.3514627 L29.328244,16.3680415 L29.328244,16.3680415 L29.3282857,16.0050799 C29.3282857,15.8810049 29.3282722,15.760055 29.328244,15.6421129 L29.3275683,14.6586774 C29.3236881,11.5291967 29.3027517,10.9520561 29.2334486,9.43310511 C29.1611425,7.84740751 28.8961925,6.98625531 28.673464,6.41316526 C28.3784295,5.65401625 28.026002,5.11223731 27.4568501,4.54314992 C26.8877627,3.97399798 26.3459838,3.62157052 25.5868347,3.32653599 C25.0137447,3.10380752 24.1525925,2.83885748 22.5668949,2.76655142 C20.9989455,2.6950127 20.4345484,2.67501154 17.030434,2.67210836 Z M15.9949833,8.00504762 C20.4132588,8.00504762 23.9949524,11.5867412 23.9949524,16.0050785 C23.9949524,20.423354 20.4132588,24.0050476 15.9949833,24.0050476 C11.576646,24.0050476 7.99495238,20.423354 7.99495238,16.0050785 C7.99495238,11.5867412 11.576646,8.00504762 15.9949833,8.00504762 Z M15.9949841,10.6717143 C13.04942,10.6717143 10.661619,13.0595152 10.661619,16.0050794 C10.661619,18.95058 13.04942,21.338381 15.9949841,21.338381 C18.9404848,21.338381 21.3282857,18.95058 21.3282857,16.0050794 C21.3282857,13.0595152 18.9404848,10.6717143 15.9949841,10.6717143 Z M24.5330794,5.54749206 C25.5931429,5.54749206 26.4525079,6.40685714 26.4525079,7.46692063 C26.4525079,8.52698413 25.5931429,9.38628571 24.5330794,9.38628571 C23.4730794,9.38628571 22.6137143,8.52698413 22.6137143,7.46692063 C22.6137143,6.40685714 23.4730794,5.54749206 24.5330794,5.54749206 Z" id="Instagram" fill="url(#linearGradient-1)"></path>
                    </g>
                </g>
            </g>
        </g>
    </g>
</svg>