<?xml version="1.0" encoding="UTF-8"?>
<svg width="32px" height="32px" viewBox="0 0 32 32" version="1.1" xmlns="http://www.w3.org/2000/svg" xmlns:xlink="http://www.w3.org/1999/xlink">
    <title>Icons/Whatsapp</title>
    <defs>
        <linearGradient x1="49.9999303%" y1="100.000083%" x2="49.9999303%" y2="9.08186729e-05%" id="linearGradient-1">
            <stop stop-color="#1FAF38" offset="0%"></stop>
            <stop stop-color="#60D669" offset="100%"></stop>
        </linearGradient>
    </defs>
    <g id="Page-1" stroke="none" strokeWidth="1" fill="none" fillRule="evenodd">
        <g id="iframe_4-(2)" transform="translate(-747.000000, -449.000000)">
            <g id="Group" transform="translate(307.000000, 442.000000)">
                <g id="Icons/Whatsapp" transform="translate(440.000000, 7.000000)">
                    <rect id="Base" fill-opacity="0" fill="#D8D8D8" fillRule="nonzero" x="0" y="0" width="32" height="32"></rect>
                    <path d="M16.0001385,32 L15.9936774,32 C13.1227241,31.9988928 10.3067827,31.2278951 7.85017188,29.7706026 L7.26599417,29.4239489 L1.21035398,31.011894 L2.82664973,25.1098315 L2.44627427,24.5047331 C0.844654489,21.958208 -0.00119864773,19.0151119 0,15.9929414 C0.00350874096,7.17444848 7.18107657,0 16.0065074,0 C20.2800779,0.00147629991 24.2973265,1.66738848 27.3181778,4.69057388 C30.3389368,7.71366702 32.001568,11.7322476 32,16.0057668 C31.9963991,24.8249979 24.8188313,32 16.0001385,32" id="Path" fill="url(#linearGradient-1)"></path>
                    <path d="M23.9219059,19.6310037 C23.4877501,19.4138008 21.3532967,18.3635287 20.9552997,18.2185602 C20.5573027,18.073675 20.2678656,18.001274 19.9784284,18.4357631 C19.6889912,18.8704187 18.8570051,19.8483732 18.6036434,20.1382269 C18.3504483,20.4278308 18.09717,20.4642395 17.6630975,20.24687 C17.2288584,20.0295005 15.829912,19.5711 14.1716052,18.0918377 C12.8808853,16.9406709 12.0095744,15.5189794 11.756296,15.0842404 C11.503101,14.649668 11.7293852,14.414719 11.9467547,14.1981827 C12.1420456,14.0036416 12.3809105,13.6910427 12.5979467,13.4375977 C12.8150662,13.1840694 12.8873839,13.0028588 13.0321025,12.7133383 C13.1768211,12.4234845 13.1045034,12.1699562 12.9959437,11.95267 C12.8873839,11.7353838 12.0190723,9.59826427 11.6573175,8.7288696 C11.304894,7.88246995 10.9469717,7.99711174 10.6804462,7.98361467 C10.4275011,7.97103406 10.1377306,7.96836798 9.84837673,7.96836798 C9.55893954,7.96836798 9.08854162,8.07701107 8.69062798,8.51158342 C8.29263101,8.94632241 7.17104108,9.9966778 7.17104108,12.1336307 C7.17104108,14.270667 8.7267868,16.3350523 8.94390634,16.6248227 C9.16094258,16.9146765 12.0053253,21.2998915 16.3606301,23.1805667 C17.3964887,23.6278863 18.2052298,23.8950783 18.8356764,24.0950349 C19.875784,24.4256299 20.8222452,24.3789733 21.5702496,24.2671642 C22.4044019,24.1425246 24.1389421,23.2168922 24.5007803,22.2027789 C24.8625351,21.188499 24.8625351,20.319271 24.7539753,20.1382269 C24.6454989,19.9570996 24.3560617,19.8483732 23.9219059,19.6310037" id="Path" fill="#FFFFFF" fillRule="nonzero"></path>
                </g>
            </g>
        </g>
    </g>
</svg>